<svg id="Capa_1" data-name="Capa 1" xmlns="http://www.w3.org/2000/svg" viewBox="0 0 99.84 85.54"><defs><style>.cls-1{fill:#f7c34d;}.cls-2{fill:#e59248;}</style></defs><title>marmo-imago</title><path class="cls-1" d="M59.19,37.63c-2.31-1-7.32-6.57-7.22-8.5H35.9c-.64.59-11.72,9.93-12.77,10.86V82.21H77.7V37C71.22,41.06,64.4,40,59.19,37.63Z" transform="translate(-0.16 -0.11)"/><path class="cls-2" d="M80.38,81.09V40C57.46,40,44,58.08,43.51,80.8,43.5,81.2,61.6,81.09,80.38,81.09Z" transform="translate(-0.16 -0.11)"/><circle class="cls-1" cx="67.98" cy="22.38" r="17.93"/><path d="M74.07,16.13a6.36,6.36,0,0,0-5.74,3.64,6.36,6.36,0,1,0,0,5.44,6.36,6.36,0,1,0,5.74-9.08Z" transform="translate(-0.16 -0.11)"/><path d="M97,14.1a27.66,27.66,0,0,0-4-.3,18.08,18.08,0,0,0-3.49.3,5.76,5.76,0,0,0-.59.18,22,22,0,0,0-41.27.19,7.66,7.66,0,0,0-1.23-.37,18.19,18.19,0,0,0-3.5-.3,27.53,27.53,0,0,0-4,.3c-1.38.2-2.39.36-3,.48v7.16a10.66,10.66,0,0,0,.51,3.62A4.65,4.65,0,0,0,38,27.51a2.12,2.12,0,0,0,.2.12C32,28.74,19.64,33,19.64,49.79V79.45A17.71,17.71,0,0,1,17,79.24a3,3,0,0,1-1.29-.5,2.08,2.08,0,0,1-.65-.9,6.47,6.47,0,0,1-.33-2.39V23.23a12.22,12.22,0,0,0-.82-4.79A8.08,8.08,0,0,0,11.23,15a9.09,9.09,0,0,0-3.95-1.64,23.69,23.69,0,0,0-4-.32,3.1,3.1,0,0,0,0,6.19,17.6,17.6,0,0,1,3,.22,3,3,0,0,1,1.29.49,2.11,2.11,0,0,1,.64.9,6.23,6.23,0,0,1,.34,2.4V75.45a12.45,12.45,0,0,0,.81,4.79A8.24,8.24,0,0,0,12,83.69a9,9,0,0,0,4,1.64,23.66,23.66,0,0,0,4,.31H62.41a25.66,25.66,0,0,0,3.43-.23,16.4,16.4,0,0,0,2.57-.51l.33-.09a8.79,8.79,0,0,0,1.94.59,19.32,19.32,0,0,0,3.18.24,25.51,25.51,0,0,0,3.42-.23,16.83,16.83,0,0,0,2.58-.51l2.2-.66V39.47A22.9,22.9,0,0,0,84,37.81a21.88,21.88,0,0,0,5.44-9c.84.07,1.68.11,2.5.11a18.12,18.12,0,0,0,3.5-.3,6.17,6.17,0,0,0,2.54-1.08,4.56,4.56,0,0,0,1.55-2.15,10.39,10.39,0,0,0,.52-3.62V14.58C99.37,14.46,98.36,14.3,97,14.1ZM75.88,79.35a16.82,16.82,0,0,1-4.16,0,1.58,1.58,0,0,1-.66-.24.78.78,0,0,1-.24-.37,4.1,4.1,0,0,1-.2-1.53V59.38a3.09,3.09,0,1,0-6.18,0v20a16.8,16.8,0,0,1-4.16,0,1.52,1.52,0,0,1-.66-.24s-.14-.1-.25-.37a4,4,0,0,1-.2-1.53V52.71a3.09,3.09,0,1,0-6.18,0V77.16a11.55,11.55,0,0,0,.21,2.3H44.3a13.13,13.13,0,0,0-5.15-18.72,3.09,3.09,0,1,0-2.81,5.5,7,7,0,0,1-3.18,13.22H25.83V49.79C25.83,34,40.1,33.45,41.72,33.43h7.63a22,22,0,0,0,26.53,9.5Zm3.7-45.91A15.9,15.9,0,0,1,57.09,11a15.72,15.72,0,0,1,5.27-3.5l6,3.46,6-3.46A15.72,15.72,0,0,1,79.58,11,15.92,15.92,0,0,1,79.58,33.44Z" transform="translate(-0.16 -0.11)"/></svg>