<svg id="Capa_1" data-name="Capa 1" xmlns="http://www.w3.org/2000/svg" viewBox="0 0 93.09 99.89"><defs><style>.cls-1{fill:#f7c34d;}.cls-2{fill:#e59248;}</style></defs><title>marmo-logo</title><path class="cls-1" d="M58.42,35.09c-2.15-1-6.82-6.12-6.73-7.92h-15c-.6.55-10.92,9.26-11.91,10.12V76.66H75.68V34.51C69.64,38.29,63.28,37.29,58.42,35.09Z" transform="translate(-3.39 -0.11)"/><path class="cls-2" d="M78.19,75.61V37.29c-21.38,0-33.92,16.87-34.38,38.05C43.8,75.72,60.67,75.61,78.19,75.61Z" transform="translate(-3.39 -0.11)"/><circle class="cls-1" cx="63.38" cy="20.87" r="16.71"/><path d="M72.3,15A5.93,5.93,0,0,0,67,18.44a5.94,5.94,0,1,0,0,5.07A5.93,5.93,0,1,0,72.3,15Z" transform="translate(-3.39 -0.11)"/><path d="M93.66,13.15a26.83,26.83,0,0,0-3.7-.28,17.26,17.26,0,0,0-3.25.28c-.2,0-.37.12-.55.17A20.58,20.58,0,0,0,52.39,6.14a20.54,20.54,0,0,0-4.72,7.36,7.25,7.25,0,0,0-1.14-.35,17.45,17.45,0,0,0-3.26-.28,26.83,26.83,0,0,0-3.7.28c-1.29.19-2.23.34-2.81.45v6.67a9.85,9.85,0,0,0,.48,3.38,4.27,4.27,0,0,0,1.45,2c.05,0,.13.07.19.11-5.8,1-17.32,5-17.32,20.66V74.08a15.61,15.61,0,0,1-2.52-.2,2.69,2.69,0,0,1-1.2-.46,1.94,1.94,0,0,1-.6-.83,5.93,5.93,0,0,1-.31-2.24V21.66a11.44,11.44,0,0,0-.76-4.46A7.66,7.66,0,0,0,13.71,14,8.45,8.45,0,0,0,10,12.45a22.71,22.71,0,0,0-3.76-.29,2.88,2.88,0,1,0,0,5.76,16.4,16.4,0,0,1,2.78.21,2.77,2.77,0,0,1,1.2.46,1.9,1.9,0,0,1,.6.84,5.73,5.73,0,0,1,.32,2.23V70.35a11.31,11.31,0,0,0,.76,4.47A7.53,7.53,0,0,0,14.38,78a8.44,8.44,0,0,0,3.69,1.53,21.56,21.56,0,0,0,3.75.29H61.43a24,24,0,0,0,3.2-.21,16.87,16.87,0,0,0,2.4-.47l.3-.09a7.8,7.8,0,0,0,1.81.55,18,18,0,0,0,3,.22,24,24,0,0,0,3.2-.21,16.87,16.87,0,0,0,2.4-.47l2-.62V36.81a21.44,21.44,0,0,0,1.76-1.55,20.47,20.47,0,0,0,5.08-8.42c.78.06,1.56.11,2.33.11a17.26,17.26,0,0,0,3.25-.28,5.92,5.92,0,0,0,2.38-1,4.32,4.32,0,0,0,1.44-2,9.59,9.59,0,0,0,.49-3.38V13.6Q95.6,13.44,93.66,13.15ZM74,74a15.53,15.53,0,0,1-3.88,0,1.35,1.35,0,0,1-.61-.22.67.67,0,0,1-.23-.34A3.78,3.78,0,0,1,69.08,72V55.37a2.88,2.88,0,1,0-5.76,0V74a15.53,15.53,0,0,1-3.88,0,1.35,1.35,0,0,1-.61-.22s-.13-.09-.24-.35A4,4,0,0,1,58.41,72V49.15a2.88,2.88,0,0,0-5.76,0V72a10.85,10.85,0,0,0,.19,2.14H44.55a12.25,12.25,0,0,0-4.81-17.46,2.88,2.88,0,0,0-2.62,5.14,6.52,6.52,0,0,1-3,12.32H27.32V46.43c0-14.71,13.31-15.24,14.82-15.25h7.11a21.14,21.14,0,0,0,3.14,4.08A20.5,20.5,0,0,0,74,40Zm3.45-42.81a14.83,14.83,0,0,1-21-21A14.9,14.9,0,0,1,61.38,7L67,10.18,72.52,7a14.83,14.83,0,0,1,4.92,24.23Z" transform="translate(-3.39 -0.11)"/><path d="M22.85,96a2.57,2.57,0,0,1-.81.42,3.89,3.89,0,0,1-1.14.15,4.19,4.19,0,0,1-1.43-.21,1.18,1.18,0,0,1-.73-.75c-.45-1.41-.82-2.55-1.1-3.42s-.52-1.64-.68-2.3h-.12c-.05.95-.08,1.81-.11,2.59s0,1.53,0,2.27,0,1.48-.05,2.23-.06,1.59-.11,2.5a3.93,3.93,0,0,1-.82.2,5.66,5.66,0,0,1-1,.09,3.26,3.26,0,0,1-1.64-.34,1.28,1.28,0,0,1-.59-1.22L13.17,86a2.31,2.31,0,0,1,.84-.68A3.79,3.79,0,0,1,15.83,85a4.12,4.12,0,0,1,2,.4,2.3,2.3,0,0,1,1.05,1.28c.15.39.3.83.47,1.32s.34,1,.51,1.54.33,1.06.49,1.58l.43,1.4h.12c.39-1.34.77-2.65,1.16-3.9s.73-2.31,1.05-3.16a3.83,3.83,0,0,1,.93-.33A6,6,0,0,1,25.3,85a4.61,4.61,0,0,1,1.92.35,1.39,1.39,0,0,1,.87,1c.06.32.13.81.2,1.47s.15,1.42.23,2.25.16,1.71.24,2.64.15,1.83.23,2.68.13,1.64.18,2.36.08,1.26.09,1.64a3,3,0,0,1-.85.35,5.11,5.11,0,0,1-1.14.11,3.55,3.55,0,0,1-1.54-.31,1.32,1.32,0,0,1-.67-1.23q-.15-2.61-.18-4.71c0-1.39-.06-2.56-.11-3.51h-.12c-.16.63-.39,1.41-.7,2.36S23.28,94.56,22.85,96Z" transform="translate(-3.39 -0.11)"/><path d="M35.82,87.58a10.24,10.24,0,0,1,2.37.26,5.33,5.33,0,0,1,1.82.81A3.68,3.68,0,0,1,41.18,90a4.39,4.39,0,0,1,.41,2v5.38a1.52,1.52,0,0,1-.35,1,3.68,3.68,0,0,1-.83.68A8.54,8.54,0,0,1,36,100a10,10,0,0,1-2.29-.24A5.51,5.51,0,0,1,32,99a3.3,3.3,0,0,1-1.12-1.23,3.54,3.54,0,0,1-.4-1.73,3.26,3.26,0,0,1,1-2.54,5.4,5.4,0,0,1,3-1.11l3.15-.33v-.17a1,1,0,0,0-.61-1,4.15,4.15,0,0,0-1.77-.3,8.57,8.57,0,0,0-1.77.19,10,10,0,0,0-1.57.48,1.63,1.63,0,0,1-.52-.66,2,2,0,0,1-.22-.92,1.55,1.55,0,0,1,.3-1,2.34,2.34,0,0,1,.93-.64A7.49,7.49,0,0,1,34,87.7,14.28,14.28,0,0,1,35.82,87.58ZM36,97a6.11,6.11,0,0,0,.9-.08,2.23,2.23,0,0,0,.74-.23V94.79l-1.73.14a2.65,2.65,0,0,0-1.11.29.77.77,0,0,0-.43.72,1,1,0,0,0,.37.78A2,2,0,0,0,36,97Z" transform="translate(-3.39 -0.11)"/><path d="M47.57,99.59a5.58,5.58,0,0,1-.76.15,9.16,9.16,0,0,1-1.07.07,6.71,6.71,0,0,1-1-.07,1.75,1.75,0,0,1-.71-.29,1.39,1.39,0,0,1-.44-.59,2.42,2.42,0,0,1-.16-1V90.68a2,2,0,0,1,.21-1,2.17,2.17,0,0,1,.59-.71,4.17,4.17,0,0,1,.94-.56A10.29,10.29,0,0,1,46.44,88a9.67,9.67,0,0,1,1.34-.3,9.43,9.43,0,0,1,1.4-.11,3.25,3.25,0,0,1,1.82.45,1.61,1.61,0,0,1,.67,1.45,2.39,2.39,0,0,1-.09.66,3.62,3.62,0,0,1-.24.59c-.34,0-.68,0-1,0s-.7.08-1,.14l-1,.21a3.65,3.65,0,0,0-.75.25Z" transform="translate(-3.39 -0.11)"/><path d="M58.11,87.58a6.74,6.74,0,0,1,1.94.28,4.62,4.62,0,0,1,1.64.83,7.19,7.19,0,0,1,1.62-.8,6.66,6.66,0,0,1,2.18-.31,6.77,6.77,0,0,1,1.79.24,4.54,4.54,0,0,1,1.56.76A3.65,3.65,0,0,1,69.93,90,4.8,4.8,0,0,1,70.34,92v7.57a5.27,5.27,0,0,1-.76.15,9.16,9.16,0,0,1-1.07.07,6.56,6.56,0,0,1-.94-.07,1.64,1.64,0,0,1-.71-.29,1.41,1.41,0,0,1-.45-.59,2.63,2.63,0,0,1-.15-1V92.14a1.26,1.26,0,0,0-.41-1,1.71,1.71,0,0,0-1.11-.32,2,2,0,0,0-.72.15,1.94,1.94,0,0,0-.57.33,1.1,1.1,0,0,1,0,.18v8.15a6.81,6.81,0,0,1-.78.15,9.1,9.1,0,0,1-1,.07,6.45,6.45,0,0,1-.94-.07,1.64,1.64,0,0,1-.71-.29,1.41,1.41,0,0,1-.45-.59,2.63,2.63,0,0,1-.15-1V92.14a1.2,1.2,0,0,0-.45-1,1.72,1.72,0,0,0-1.07-.32,1.85,1.85,0,0,0-.74.13,5.46,5.46,0,0,0-.53.25v8.43a5.27,5.27,0,0,1-.76.15,9.16,9.16,0,0,1-1.07.07,6.71,6.71,0,0,1-1-.07,1.65,1.65,0,0,1-.7-.29,1.41,1.41,0,0,1-.45-.59,2.63,2.63,0,0,1-.15-1V90.63a1.75,1.75,0,0,1,.27-1,3.1,3.1,0,0,1,.76-.72,6.71,6.71,0,0,1,2-.94A8.84,8.84,0,0,1,58.11,87.58Z" transform="translate(-3.39 -0.11)"/><path d="M84.32,93.78a7.08,7.08,0,0,1-.46,2.65,5.25,5.25,0,0,1-3.26,3.16A7.74,7.74,0,0,1,78,100a7.22,7.22,0,0,1-2.57-.43,5.73,5.73,0,0,1-2-1.24,5.51,5.51,0,0,1-1.28-2,7.47,7.47,0,0,1,0-5.16,5.51,5.51,0,0,1,1.28-2,5.73,5.73,0,0,1,2-1.24A7.22,7.22,0,0,1,78,87.58,7,7,0,0,1,80.6,88a5.74,5.74,0,0,1,2,1.24,5.51,5.51,0,0,1,1.28,2A6.77,6.77,0,0,1,84.32,93.78Zm-8.41,0A3.74,3.74,0,0,0,76.48,96a1.81,1.81,0,0,0,1.57.79A1.77,1.77,0,0,0,79.6,96a3.93,3.93,0,0,0,.54-2.23,3.79,3.79,0,0,0-.55-2.22A1.8,1.8,0,0,0,78,90.78a1.78,1.78,0,0,0-1.56.78A3.79,3.79,0,0,0,75.91,93.78Z" transform="translate(-3.39 -0.11)"/></svg>